<svg width="88" height="88" viewBox="0 0 88 88" fill="none" xmlns="http://www.w3.org/2000/svg">
<rect width="88" height="88" rx="20" fill="#FA855C"/>
<path d="M36.2377 34.4515L34.7011 31.7902L33.1627 31.6758L32.5957 33.0058L34.1334 35.6691C35.238 35.8717 36.0585 35.4435 36.2377 34.4515Z" fill="#B9C1CB"/>
<path d="M51.7637 34.4515L53.3002 31.7902L54.8387 31.6758L55.4057 33.0058L53.868 35.6691C52.7634 35.8717 51.9428 35.4435 51.7637 34.4515Z" fill="#B9C1CB"/>
<path d="M45.2492 30.3012C47.1776 29.7487 48.5244 27.9599 48.5244 25.9514C48.5244 23.4567 46.4948 21.4273 44.0002 21.4273C41.5055 21.4273 39.4759 23.4568 39.4759 25.9514C39.4759 27.9599 40.8227 29.7487 42.7511 30.3012L42.9468 31.8096C40.0991 31.3004 38.0488 28.7931 38.0488 25.9513C38.0487 22.6698 40.7185 20 44.0002 20C47.2818 20 49.9516 22.6698 49.9516 25.9513C49.9516 28.789 47.9073 31.2931 45.0662 31.8073L45.2492 30.3012Z" fill="#DAE4EA"/>
<path d="M44.0003 33.0495C44.4871 33.0495 44.9691 33.0723 45.4459 33.1169V27.1761H42.5547V33.1169C43.0315 33.0723 43.5136 33.0495 44.0003 33.0495Z" fill="#B9C1CB"/>
<path d="M44.0005 68.0001C53.7595 68.0001 61.6708 60.0888 61.6708 50.3297C61.6708 40.5706 53.7595 32.6593 44.0005 32.6593C34.2414 32.6593 26.3301 40.5706 26.3301 50.3297C26.3301 60.0888 34.2414 68.0001 44.0005 68.0001Z" fill="#DAE4EA"/>
<path d="M46.1425 24.3274H41.8594C41.6468 24.3274 41.4746 24.4996 41.4746 24.7121V27.1907C41.4746 27.4032 41.6468 27.5755 41.8594 27.5755H46.1425C46.355 27.5755 46.5273 27.4032 46.5273 27.1907V24.7121C46.5273 24.4997 46.3549 24.3274 46.1425 24.3274Z" fill="#DAE4EA"/>
<path d="M34.92 31.6638L32.3765 33.1323C32.2808 33.1876 32.1584 33.1548 32.1032 33.0591L30.2026 29.7673C30.1474 29.6716 30.1801 29.5492 30.2758 29.494L32.8194 28.0255C32.9151 27.9703 33.0374 28.003 33.0926 28.0987L34.9932 31.3906C35.0485 31.4862 35.0157 31.6085 34.92 31.6638Z" fill="#DAE4EA"/>
<path d="M53.0825 31.6638L55.626 33.1323C55.7218 33.1876 55.8441 33.1548 55.8993 33.0591L57.7999 29.7673C57.8551 29.6716 57.8224 29.5492 57.7267 29.494L55.1832 28.0255C55.0875 27.9703 54.9651 28.003 54.9099 28.0987L53.0093 31.3906C52.954 31.4862 52.9868 31.6085 53.0825 31.6638Z" fill="#DAE4EA"/>
<path d="M44.0008 64.7874C51.9857 64.7874 58.4587 58.3144 58.4587 50.3295C58.4587 42.3447 51.9857 35.8717 44.0008 35.8717C36.016 35.8717 29.543 42.3447 29.543 50.3295C29.543 58.3144 36.016 64.7874 44.0008 64.7874Z" fill="#F6F9F9"/>
<path d="M48.4859 36.5811C52.2147 39.1958 54.6524 43.5266 54.6524 48.4266C54.6524 56.4115 48.1794 62.8845 40.1945 62.8845C38.6287 62.8845 37.121 62.6356 35.709 62.1751C38.0564 63.8212 40.9156 64.7873 44.0003 64.7873C51.9852 64.7873 58.4582 58.3144 58.4582 50.3295C58.4582 43.9105 54.2749 38.4685 48.4859 36.5811Z" fill="#E7ECF1"/>
<path d="M44 50.194V38.3873C44 38.3118 44.0618 38.2501 44.1372 38.251C50.6892 38.3243 56.0052 43.6404 56.0785 50.1922C56.0793 50.2677 56.0176 50.3295 55.9422 50.3295H44.1355C44.0607 50.3296 44 50.2688 44 50.194Z" fill="#DA4A54"/>
<path d="M55.9424 50.3296C56.0179 50.3296 56.0795 50.2678 56.0787 50.1924C56.0485 47.4959 55.1303 45.0088 53.6035 43.0104C54.2799 44.6833 54.6523 46.5115 54.6523 48.4268C54.6523 49.0718 54.61 49.7069 54.5282 50.3296H55.9424Z" fill="#D82E3D"/>
</svg>
