<svg width="88" height="88" viewBox="0 0 88 88" fill="none" xmlns="http://www.w3.org/2000/svg">
<rect width="88" height="88" rx="20" fill="#FFC954"/>
<path d="M65.2379 29.6027L46.6153 28.087L22.7637 29.6027V66.8253C22.7637 67.474 23.2895 67.9999 23.9383 67.9999H64.0631C64.7119 67.9999 65.238 67.4738 65.238 66.825L65.2379 29.6027Z" fill="#F6F9F9"/>
<path d="M65.2379 29.6027L61.3747 27.6711V57.1131C61.3747 62.0589 57.3653 66.0683 52.4195 66.0683H22.7637V66.8253C22.7637 67.474 23.2895 67.9999 23.9383 67.9999H64.063C64.7118 67.9999 65.2379 67.4739 65.2379 66.825V29.6027Z" fill="#E7ECF1"/>
<path d="M64.0631 22.7399H23.9385C23.2896 22.7399 22.7637 23.2658 22.7637 23.9146V29.6027H65.2379V23.9146C65.2379 23.2658 64.7119 22.7399 64.0631 22.7399Z" fill="#61A2F9"/>
<path d="M64.0635 22.7399H61.375V29.6027H65.2382V23.9146C65.2382 23.2658 64.7122 22.7399 64.0635 22.7399Z" fill="#5490F9"/>
<path d="M28.768 26.4656H28.108C27.4616 26.4656 26.9375 25.9415 26.9375 25.2951V21.1705C26.9375 20.5241 27.4616 20 28.108 20H28.768C29.4144 20 29.9384 20.5241 29.9384 21.1705V25.295C29.9384 25.9415 29.4145 26.4656 28.768 26.4656Z" fill="#DAE4EA"/>
<path d="M36.5492 26.4656H35.8892C35.2428 26.4656 34.7188 25.9415 34.7188 25.2951V21.1705C34.7188 20.5241 35.2428 20 35.8892 20H36.5492C37.1956 20 37.7197 20.5241 37.7197 21.1705V25.295C37.7197 25.9415 37.1957 26.4656 36.5492 26.4656Z" fill="#DAE4EA"/>
<path d="M44.3324 26.4656H43.6724C43.026 26.4656 42.502 25.9415 42.502 25.2951V21.1705C42.502 20.5241 43.026 20 43.6724 20H44.3324C44.9788 20 45.5029 20.5241 45.5029 21.1705V25.295C45.5029 25.9415 44.9788 26.4656 44.3324 26.4656Z" fill="#DAE4EA"/>
<path d="M52.1137 26.4656H51.4537C50.8073 26.4656 50.2832 25.9415 50.2832 25.2951V21.1705C50.2832 20.5241 50.8072 20 51.4537 20H52.1137C52.7601 20 53.2841 20.5241 53.2841 21.1705V25.295C53.2841 25.9415 52.7601 26.4656 52.1137 26.4656Z" fill="#DAE4EA"/>
<path d="M59.8949 26.4656H59.2349C58.5885 26.4656 58.0645 25.9415 58.0645 25.2951V21.1705C58.0645 20.5241 58.5884 20 59.2349 20H59.8949C60.5413 20 61.0654 20.5241 61.0654 21.1705V25.295C61.0654 25.9415 60.5413 26.4656 59.8949 26.4656Z" fill="#DAE4EA"/>
<path d="M56.1471 42.8461L53.1064 39.8054C52.8615 39.5605 52.4644 39.5605 52.2194 39.8054L41.7193 50.3055C41.6852 50.3397 41.63 50.3397 41.5959 50.3055L35.7994 44.5091C35.5544 44.2641 35.1574 44.2641 34.9124 44.5091L31.8536 47.5678C31.6087 47.8128 31.6087 48.2098 31.8536 48.4548L41.196 57.7971C41.441 58.0421 41.838 58.042 42.083 57.7971L56.1471 43.733C56.392 43.4881 56.392 43.0911 56.1471 42.8461Z" fill="#80E29D"/>
</svg>
