<svg width="48" height="48" viewBox="0 0 48 48" fill="none" xmlns="http://www.w3.org/2000/svg">
<g clip-path="url(#clip0_1_977)">
<path d="M26.4516 37.8206H21.5486L21.2773 39.3935C20.986 41.0823 22.2864 42.6262 24 42.6262C25.7138 42.6262 27.0141 41.0823 26.7228 39.3935L26.4516 37.8206Z" fill="#FFDD27"/>
<path d="M26.7608 39.7522C26.7559 39.6337 26.7432 39.5141 26.7224 39.3937L26.4511 37.8207L22.6054 36.9338L21.548 37.8207L21.2767 39.3937C21.2559 39.5141 21.2433 39.6338 21.2383 39.7522H26.7608Z" fill="#F9C91A"/>
<path d="M36.0004 30.1452C35.6854 29.5995 35.5195 28.9807 35.5195 28.3506V22.0593C35.5195 16.9542 32.1985 12.6245 27.5991 11.1131C27.4592 11.0671 27.4001 10.921 27.4621 10.7874C27.7325 10.2047 27.8599 9.54275 27.7991 8.84684C27.666 7.32181 26.3621 5.37378 24.0051 5.37378C21.8867 5.37378 20.1862 7.09315 20.1862 9.18772C20.1862 9.74853 20.3079 10.2815 20.5264 10.7616C20.5936 10.9093 20.5206 11.0734 20.3665 11.1246C15.7851 12.6462 12.4808 16.9668 12.4808 22.0592L12.4808 28.3507C12.4808 28.9807 12.315 29.5996 12 30.1452L24.2558 32.6003L36.0004 30.1452ZM22.6482 9.18762C22.6482 8.4409 23.2536 7.83565 24.0002 7.83565C24.7469 7.83565 25.3522 8.441 25.3522 9.18762C25.3522 9.93425 24.7468 10.5396 24.0002 10.5396C23.2535 10.5397 22.6482 9.93434 22.6482 9.18762Z" fill="#FFDD27"/>
<path d="M31.6559 19.6447V25.936C31.6559 26.566 31.8217 27.1849 32.1367 27.7305L33.5307 30.1451L35.3904 30.8926L35.9999 30.1451C35.6849 29.5994 35.519 28.9806 35.519 28.3505V22.0592C35.519 17.1215 32.4122 12.9092 28.0469 11.2708C30.2691 13.3708 31.6559 16.3458 31.6559 19.6447V19.6447Z" fill="#F9C91A"/>
<path d="M47.9998 23.0727C47.9998 26.8898 46.6207 30.3841 44.3341 33.085C43.8813 33.62 43.0641 33.6458 42.5685 33.1503L42.562 33.1437C42.1156 32.6974 42.0944 31.9866 42.5014 31.5043C44.4246 29.2254 45.5852 26.2826 45.5852 23.0727C45.5852 19.8636 44.4244 16.92 42.5018 14.6409C42.0949 14.1587 42.1163 13.4482 42.5623 13.002L42.5693 12.995C43.0649 12.4991 43.8824 12.5249 44.3353 13.0601C46.6216 15.7619 47.9998 19.2566 47.9998 23.0727Z" fill="#FFDD27"/>
<path d="M43.1712 23.0729C43.1712 25.5266 42.3391 27.7905 40.9417 29.596C40.4961 30.1718 39.6475 30.229 39.1326 29.7141L39.1312 29.7126C38.7007 29.2822 38.6616 28.6007 39.0337 28.1192C40.1134 26.7222 40.7567 24.9716 40.7567 23.073C40.7567 21.1743 40.1134 19.4237 39.0337 18.0268C38.6616 17.5452 38.7007 16.8636 39.1312 16.4332L39.1326 16.4317C39.6475 15.9168 40.4961 15.9739 40.9417 16.5498C42.3391 18.3553 43.1712 20.6192 43.1712 23.0729V23.0729Z" fill="#FFDD27"/>
<path d="M0 23.0727C0 26.8898 1.37906 30.3841 3.66562 33.085C4.11844 33.62 4.93566 33.6458 5.43122 33.1503L5.43778 33.1437C5.88412 32.6974 5.90541 31.9866 5.49834 31.5043C3.57516 29.2254 2.41453 26.2826 2.41453 23.0727C2.41453 19.8636 3.57534 16.92 5.49797 14.6409C5.90484 14.1587 5.88347 13.4482 5.4375 13.002L5.43047 12.995C4.93491 12.4991 4.11741 12.5249 3.6645 13.0601C1.37822 15.7619 0 19.2566 0 23.0727H0Z" fill="#FFDD27"/>
<path d="M4.82812 23.0729C4.82812 25.5266 5.66025 27.7905 7.05759 29.596C7.50328 30.1718 8.35181 30.229 8.86668 29.7141L8.86818 29.7126C9.29859 29.2822 9.33778 28.6007 8.96559 28.1192C7.88597 26.7222 7.24265 24.9716 7.24265 23.073C7.24265 21.1743 7.88597 19.4237 8.96559 18.0268C9.33778 17.5452 9.29859 16.8636 8.86818 16.4332L8.86668 16.4317C8.35181 15.9168 7.50328 15.9739 7.05759 16.5498C5.66025 18.3553 4.82812 20.6192 4.82812 23.0729V23.0729Z" fill="#FFDD27"/>
<path d="M24 13.726C23.2998 13.726 22.628 13.5705 22.0032 13.264C21.6441 13.0879 21.4958 12.6538 21.6719 12.2947C21.8481 11.9354 22.2821 11.7872 22.6413 11.9634C23.0658 12.1716 23.5229 12.2772 24 12.2772C24.4729 12.2772 24.9264 12.1734 25.3478 11.9688C25.7075 11.794 26.1411 11.9439 26.3157 12.3039C26.4906 12.6637 26.3406 13.0971 25.9807 13.2718C25.3604 13.5732 24.6941 13.726 24 13.726V13.726Z" fill="#F9C91A"/>
<path d="M35.9995 30.1453H11.9992L7.92272 37.2059C7.76494 37.479 7.96219 37.8206 8.27765 37.8206H39.7211C40.0366 37.8206 40.2337 37.479 40.0761 37.2059L35.9995 30.1453Z" fill="#F6E266"/>
<path d="M40.0761 37.2057L35.9996 30.145H33.5304L34.0932 31.1197C35.193 33.0246 33.8182 35.4058 31.6186 35.4058H8.96184L7.92272 37.2056C7.76494 37.4788 7.96219 37.8203 8.27765 37.8203H39.7211C40.0367 37.8204 40.2338 37.479 40.0761 37.2057V37.2057Z" fill="#F4D820"/>
</g>
<defs>
<clipPath id="clip0_1_977">
<rect width="48" height="48" fill="white"/>
</clipPath>
</defs>
</svg>
