<svg width="16" height="17" viewBox="0 0 16 17" fill="none" xmlns="http://www.w3.org/2000/svg">
<g clip-path="url(#clip0_1_509)">
<path fill-rule="evenodd" clip-rule="evenodd" d="M7.77188 0C8.81088 0.0394767 9.88698 0.0394767 10.926 0.0789494C11.8537 0.118422 12.7071 0.27632 13.5235 0.789481C14.5625 1.46054 15.1933 2.44739 15.4159 3.71056C15.5273 4.46057 15.5644 5.25005 15.6015 6.00006C15.6386 7.65797 15.6015 9.31588 15.6015 10.9738C15.6015 11.8422 15.5644 12.7106 15.3046 13.5396C14.7851 15.158 13.709 16.1449 12.1505 16.4607C11.4455 16.6186 10.7033 16.6186 9.99831 16.6581C8.4398 16.6975 6.91841 16.6581 5.35991 16.6581C4.54356 16.6581 3.7272 16.6186 2.94796 16.3423C1.42656 15.7896 0.498884 14.6449 0.202026 12.987C0.0536001 12.237 0.0536001 11.4475 0.0164926 10.6975C-0.0206158 9.03956 0.0164926 7.38165 0.0164926 5.72374C0.0164926 4.85531 0.0536001 3.98688 0.313349 3.15792C0.83285 1.53949 1.90895 0.55264 3.46745 0.236846C4.17249 0.0789544 4.91463 0.0789544 5.61967 0.0394767C6.3247 0 7.02973 0 7.77188 0V0ZM14.1906 8.17119C14.1906 8.17119 14.1535 8.17119 14.1906 8.17119C14.1535 7.50012 14.1535 6.86854 14.1535 6.19748C14.1535 5.5659 14.1164 4.93431 14.0422 4.30273C13.8938 2.88165 13.1145 1.93428 11.8158 1.65796C11.1478 1.50006 10.4057 1.50006 9.73777 1.50006C8.40191 1.46059 7.10316 1.46059 5.76731 1.50006C5.09938 1.50006 4.43145 1.53953 3.80063 1.65796C2.68742 1.85533 1.90817 2.52639 1.57421 3.71061C1.46288 4.10535 1.42578 4.50009 1.38867 4.89483C1.35156 6.39485 1.35156 7.89486 1.35156 9.39488C1.35156 10.3423 1.38867 11.3291 1.46288 12.2765C1.57421 13.6975 2.39056 14.6844 3.72642 14.9212C4.39434 15.0397 5.09938 15.0791 5.80441 15.0791C7.10316 15.1186 8.40191 15.0791 9.73777 15.0791C10.3315 15.0791 10.9252 15.0397 11.5189 14.9607C12.0755 14.9212 12.595 14.7239 13.0403 14.3291C13.7824 13.6975 14.0422 12.8686 14.0793 11.9212C14.1535 10.737 14.1535 9.47383 14.1906 8.17119Z" fill="#18063C"/>
<path fill-rule="evenodd" clip-rule="evenodd" d="M11.7808 8.32958C11.7808 10.698 9.99962 12.5928 7.7732 12.5928C5.54677 12.5928 3.76562 10.698 3.76562 8.29011C3.76562 5.96115 5.58387 4.06641 7.8103 4.06641C9.99962 4.06641 11.7808 5.96115 11.7808 8.32958ZM7.77413 11.0927C9.1842 11.0927 10.3716 9.82958 10.3716 8.32958C10.3716 6.82957 9.1842 5.56641 7.77413 5.56641C6.32695 5.56641 5.17663 6.82957 5.17663 8.32958C5.13952 9.82958 6.32695 11.0927 7.77413 11.0927Z" fill="#18063C"/>
<path d="M12.8536 3.63666C12.8536 4.15616 12.4454 4.60145 11.9259 4.60145C11.4064 4.60145 10.9611 4.15616 10.9983 3.63666C10.9983 3.11716 11.4064 2.70898 11.9259 2.70898C12.4454 2.70898 12.8536 3.11716 12.8536 3.63666Z" fill="#18063C"/>
</g>
<defs>
<clipPath id="clip0_1_509">
<rect width="15.618" height="16.6756" fill="white"/>
</clipPath>
</defs>
</svg>
