<svg width="18" height="17" viewBox="0 0 18 17" fill="none" xmlns="http://www.w3.org/2000/svg">
<path fill-rule="evenodd" clip-rule="evenodd" d="M17.3465 10.1478V16.5536H13.6059V10.5686C13.6059 9.07233 13.0915 8.04366 11.7355 8.04366C10.7068 8.04366 10.099 8.74503 9.81843 9.39964C9.72492 9.63343 9.67816 9.96074 9.67816 10.288V16.5536H5.9375C5.9375 16.5536 5.98426 6.40713 5.9375 5.37845H9.67816V6.96823C9.67816 6.96823 9.67816 7.01497 9.6314 7.01497H9.67816V6.96823C10.1925 6.2201 11.0342 5.0979 13.0448 5.0979C15.4762 5.0979 17.3465 6.73443 17.3465 10.1478ZM2.10412 0.0012207C0.841646 0.0012207 0 0.842865 0 1.9183C0 2.99373 0.794889 3.83539 2.05736 3.83539H2.10412C3.41335 3.83539 4.20824 2.99374 4.20824 1.9183C4.16148 0.842865 3.36659 0.0012207 2.10412 0.0012207ZM0.1875 16.5536H3.88142V5.37842H0.1875V16.5536Z" fill="#18063C"/>
</svg>
