<svg width="116" height="28" viewBox="0 0 116 28" fill="none" xmlns="http://www.w3.org/2000/svg">
<path d="M61.1191 6.46633C60.2176 6.46633 59.4577 6.14963 58.8567 5.52618C58.2606 4.9202 57.9278 4.08479 57.9427 3.23192C57.9427 2.3217 58.2507 1.55112 58.8567 0.94015C59.4552 0.316709 60.2151 0 61.1167 0C62.0082 0 62.7682 0.316709 63.3791 0.94015C63.9851 1.57107 64.2931 2.34165 64.2931 3.23192C64.2831 4.14464 63.9752 4.91521 63.3791 5.52369C62.7806 6.15212 62.0207 6.46633 61.1191 6.46633ZM34.2946 6.46633C33.413 6.46633 32.6481 6.15461 32.0222 5.53865C31.4013 4.92519 31.0859 4.14963 31.0859 3.23441C31.0859 2.3192 31.4013 1.54364 32.0222 0.930175C32.6357 0.314215 33.4006 0.00249392 34.2946 0.00249392C34.7317 0.00249392 35.1564 0.0897759 35.5637 0.266833C35.9636 0.438903 36.2889 0.673317 36.5298 0.9601L36.5894 1.03242L35.9164 1.69576L35.8468 1.61347C35.4669 1.1596 34.9577 0.937656 34.2847 0.937656C33.6837 0.937656 33.1597 1.15212 32.7275 1.57606C32.2929 2.00249 32.0719 2.5611 32.0719 3.23691C32.0719 3.91272 32.2929 4.47132 32.7275 4.89776C33.1597 5.3217 33.6837 5.53616 34.2847 5.53616C34.9255 5.53616 35.4644 5.3217 35.8841 4.89776C36.1324 4.64838 36.2864 4.29925 36.3411 3.85786H34.1829V2.92519H37.2674L37.2798 3.00998C37.3022 3.16708 37.3245 3.32918 37.3245 3.4788C37.3245 4.33915 37.0663 5.03491 36.5546 5.54863C35.9735 6.15711 35.2135 6.46633 34.2946 6.46633ZM69.9605 6.33416H69.0093L66.0961 1.65337L66.121 2.49626V6.33167H65.1698V0.134664H66.2551L66.2849 0.182045L69.0242 4.59102L68.9993 3.75062V0.134664H69.9605V6.33416ZM53.9716 6.33416H53.008V1.06733H51.3366V0.134664H55.6405V1.06733H53.9691V6.33416H53.9716ZM50.5518 6.33416H49.5906V0.134664H50.5518V6.33416ZM45.1501 6.33416H44.189V1.06733H42.5176V0.134664H46.8215V1.06733H45.1501V6.33416ZM41.9091 6.32419H38.2236V0.134664H41.9091V1.06733H39.1872V2.76808H41.6434V3.69077H39.1872V5.39152H41.9091V6.32419ZM59.562 4.88529C59.9916 5.31671 60.5132 5.53367 61.1191 5.53367C61.7425 5.53367 62.2516 5.3217 62.6763 4.88529C63.0985 4.46135 63.3121 3.90524 63.3121 3.23441C63.3121 2.56359 63.0985 2.00499 62.6788 1.58354C62.2491 1.15212 61.7251 0.935162 61.1216 0.935162C60.4983 0.935162 59.9891 1.14713 59.5669 1.58354C59.1447 2.00748 58.9312 2.56359 58.9312 3.23441C58.9312 3.90524 59.1423 4.46384 59.562 4.88529Z" fill="#FF553E"/>
<path fill-rule="evenodd" clip-rule="evenodd" d="M57.8528 14.9898C55.5059 14.9898 53.6035 16.7778 53.6035 19.2442C53.6035 21.688 55.5183 23.4985 57.8528 23.4985C60.1998 23.4985 62.1021 21.698 62.1021 19.2442C62.1021 16.7778 60.1998 14.9898 57.8528 14.9898ZM57.8528 21.8127C56.5688 21.8127 55.4636 20.7454 55.4636 19.2342C55.4636 17.7005 56.5713 16.6556 57.8528 16.6556C59.1368 16.6556 60.242 17.7005 60.242 19.2342C60.2445 20.7554 59.1368 21.8127 57.8528 21.8127ZM48.5818 14.9898C46.2348 14.9898 44.3324 16.7778 44.3324 19.2442C44.3324 21.688 46.2472 23.4985 48.5818 23.4985C50.9287 23.4985 52.8311 21.698 52.8311 19.2442C52.8311 16.7778 50.9262 14.9898 48.5818 14.9898ZM48.5818 21.8127C47.2978 21.8127 46.1926 20.7454 46.1926 19.2342C46.1926 17.7005 47.3003 16.6556 48.5818 16.6556C49.8658 16.6556 50.9709 17.7005 50.9709 19.2342C50.9709 20.7554 49.8658 21.8127 48.5818 21.8127ZM37.5499 16.289V18.0895H41.8539C41.7222 19.0995 41.3894 19.8452 40.8803 20.3564C40.2495 20.9898 39.2759 21.6781 37.5598 21.6781C34.9149 21.6781 32.8461 19.5334 32.8461 16.8776C32.8461 14.2217 34.9149 12.0771 37.5598 12.0771C38.9879 12.0771 40.0285 12.6432 40.8008 13.3664L42.0724 12.0895C40.9995 11.0571 39.5715 10.2666 37.5698 10.2666C33.9413 10.2666 30.8965 13.2342 30.8965 16.8676C30.8965 20.511 33.9388 23.4686 37.5698 23.4686C39.5293 23.4686 40.9995 22.8252 42.1618 21.6132C43.3465 20.4237 43.7215 18.7454 43.7215 17.3913C43.7215 16.9698 43.6892 16.5908 43.6221 16.2691H37.5474C37.5499 16.2666 37.5499 16.289 37.5499 16.289ZM82.6733 17.6905C82.3181 16.7354 81.2453 14.9798 79.0448 14.9798C76.8643 14.9798 75.0513 16.703 75.0513 19.2342C75.0513 21.6232 76.8444 23.4885 79.2559 23.4885C81.1931 23.4885 82.3206 22.299 82.7851 21.6008L81.3471 20.6332C80.8702 21.3439 80.2071 21.8102 79.2659 21.8102C78.3147 21.8102 77.6491 21.3763 77.207 20.521L82.872 18.1644C82.872 18.1669 82.6733 17.6905 82.6733 17.6905ZM76.8966 19.112C76.8519 17.4686 78.1682 16.6332 79.1094 16.6332C79.852 16.6332 80.4704 16.9998 80.6815 17.5334L76.8966 19.112ZM72.2946 23.2342H74.1548V10.7354H72.2946V23.2342ZM69.2398 15.9349H69.1728C68.7531 15.4337 67.9558 14.9798 66.9376 14.9798C64.8241 14.9798 62.877 16.8476 62.877 19.2466C62.877 21.6357 64.8142 23.4811 66.9376 23.4811C67.9434 23.4811 68.7531 23.0247 69.1728 22.5135H69.2398V23.1245C69.2398 24.7479 68.3756 25.6232 66.9823 25.6232C65.8424 25.6232 65.1345 24.8003 64.8465 24.112L63.2297 24.7903C63.6941 25.9125 64.9334 27.3015 66.9798 27.3015C69.1604 27.3015 71.0081 26.0122 71.0081 22.8676V15.2342H69.2498V15.9349C69.2523 15.9349 69.2398 15.9349 69.2398 15.9349ZM67.104 21.8127C65.82 21.8127 64.7471 20.7354 64.7471 19.2466C64.7471 17.7454 65.82 16.6581 67.104 16.6581C68.3756 16.6581 69.3615 17.7579 69.3615 19.2466C69.3739 20.7354 68.378 21.8127 67.104 21.8127ZM91.3831 10.7354H86.935V23.2342H88.7952V18.501H91.3855C93.4444 18.501 95.4685 17.0023 95.4685 14.6232C95.4685 12.2442 93.4518 10.7354 91.3831 10.7354ZM91.4377 16.7554H88.7927V12.4661H91.4377C92.831 12.4661 93.6183 13.6207 93.6183 14.6107C93.6183 15.5908 92.821 16.7554 91.4377 16.7554ZM102.924 14.9673C101.573 14.9673 100.18 15.5683 99.6036 16.8776L101.253 17.5659C101.608 16.8776 102.258 16.6432 102.946 16.6432C103.91 16.6432 104.884 17.2217 104.906 18.2541V18.3863C104.573 18.1968 103.843 17.9075 102.969 17.9075C101.188 17.9075 99.3825 18.8851 99.3825 20.718C99.3825 22.3963 100.843 23.4736 102.47 23.4736C103.719 23.4736 104.407 22.9075 104.836 22.2516H104.903V23.2192H106.697V18.4312C106.697 16.2018 105.047 14.9673 102.924 14.9673ZM102.691 21.8127C102.082 21.8127 101.23 21.5135 101.23 20.7454C101.23 19.7778 102.293 19.4112 103.2 19.4112C104.019 19.4112 104.407 19.5883 104.894 19.8327C104.759 20.9549 103.816 21.8028 102.691 21.8127ZM113.238 15.2342L111.102 20.6556H111.035L108.822 15.2342H106.821L110.141 22.8127L108.249 27.0247H110.186L115.295 15.2342H113.238ZM96.4942 23.2342H98.3544V10.7354H96.4942V23.2342Z" fill="#FF553E"/>
<path d="M16.5554 17.3505L13.069 13.82L16.5527 10.2721C19.0409 11.6607 20.9514 12.7216 21.3185 12.9162C22.5041 13.5615 21.9016 14.3923 21.3185 14.7063C21.1924 14.7698 20.1402 15.3553 18.5793 16.2238L18.578 16.2246C18.3267 16.3644 18.0623 16.5116 17.7865 16.6652C17.3973 16.882 16.9853 17.1114 16.5554 17.3505Z" fill="#FF553E"/>
<path d="M15.9206 17.7035L12.5788 14.3193L1.41158 25.6923C1.54615 25.6513 1.68897 25.5891 1.84148 25.5043C1.95572 25.441 2.23359 25.2873 2.64203 25.0614L2.66635 25.0479C4.96477 23.7767 11.2755 20.2862 15.9206 17.7035Z" fill="#FF553E"/>
<path d="M0.499208 25.6229C0.171546 25.3993 0 24.9316 0 24.3411V3.39114C0 2.73809 0.227391 2.33626 0.542315 2.13025L12.0871 13.8214L0.499208 25.6229Z" fill="#FF553E"/>
<path d="M1.39699 2L12.5773 13.3221L15.9064 9.93159C13.8421 8.79151 2.58686 2.57594 1.84128 2.17443C1.69964 2.08918 1.54876 2.03182 1.39699 2Z" fill="#FF553E"/>
</svg>
