<svg aria-hidden="true" style="position: absolute; width: 0; height: 0; overflow: hidden;" version="1.1" xmlns="http://www.w3.org/2000/svg" xmlns:xlink="http://www.w3.org/1999/xlink">
<defs>
<symbol id="icon-footer1" viewBox="0 0 30 32">
<path  d="M14.629 0c1.956 0.074 3.981 0.074 5.937 0.149 1.746 0.074 3.353 0.372 4.889 1.337 1.956 1.263 3.143 3.121 3.562 5.498 0.21 1.412 0.28 2.898 0.349 4.31 0.070 3.121 0 6.242 0 9.362 0 1.635-0.070 3.269-0.559 4.83-0.978 3.046-3.003 4.904-5.937 5.499-1.327 0.297-2.724 0.297-4.051 0.372-2.934 0.074-5.797 0-8.731 0-1.537 0-3.073-0.074-4.54-0.594-2.864-1.040-4.61-3.195-5.169-6.316-0.279-1.412-0.279-2.898-0.349-4.31-0.070-3.121 0-6.242 0-9.362 0-1.635 0.070-3.269 0.559-4.83 0.978-3.046 3.003-4.904 5.937-5.498 1.327-0.297 2.724-0.297 4.051-0.372s2.654-0.074 4.051-0.074v0zM26.712 15.381c0 0-0.070 0 0 0-0.070-1.263-0.070-2.452-0.070-3.715 0-1.189-0.070-2.378-0.209-3.567-0.279-2.675-1.746-4.458-4.191-4.978-1.257-0.297-2.654-0.297-3.912-0.297-2.515-0.074-4.959-0.074-7.474 0-1.257 0-2.515 0.074-3.702 0.297-2.095 0.372-3.562 1.635-4.191 3.864-0.21 0.743-0.279 1.486-0.349 2.229-0.070 2.824-0.070 5.647-0.070 8.471 0 1.783 0.070 3.641 0.21 5.424 0.21 2.675 1.746 4.533 4.261 4.978 1.257 0.223 2.584 0.297 3.912 0.297 2.445 0.074 4.889 0 7.404 0 1.118 0 2.235-0.074 3.353-0.223 1.048-0.074 2.026-0.446 2.864-1.189 1.397-1.189 1.886-2.749 1.956-4.533 0.14-2.229 0.14-4.607 0.209-7.059z"></path>
<path  d="M22.176 15.679c0 4.458-3.353 8.025-7.544 8.025s-7.544-3.567-7.544-8.099c0-4.384 3.423-7.95 7.614-7.95 4.121 0 7.474 3.567 7.474 8.025zM14.634 20.88c2.654 0 4.889-2.378 4.889-5.201s-2.235-5.201-4.889-5.201c-2.724 0-4.889 2.378-4.889 5.201-0.070 2.824 2.165 5.201 4.889 5.201z"></path>
<path  d="M24.195 6.845c0 0.978-0.768 1.816-1.746 1.816s-1.816-0.838-1.746-1.816c0-0.978 0.768-1.746 1.746-1.746s1.746 0.768 1.746 1.746z"></path>
</symbol>
<symbol id="icon-footer2" viewBox="0 0 34 32">
<path d="M32.652 19.102v12.058h-7.041v-11.266c0-2.817-0.968-4.753-3.521-4.753-1.936 0-3.080 1.32-3.609 2.552-0.176 0.44-0.264 1.056-0.264 1.672v11.794h-7.041c0 0 0.088-19.099 0-21.036h7.041v2.993c0 0 0 0.088-0.088 0.088h0.088v-0.088c0.968-1.408 2.553-3.521 6.337-3.521 4.577 0 8.097 3.081 8.097 9.506zM3.961 0.002c-2.376 0-3.961 1.584-3.961 3.609s1.496 3.609 3.873 3.609h0.088c2.464 0 3.961-1.584 3.961-3.609-0.088-2.024-1.584-3.609-3.961-3.609zM0.353 31.16h6.953v-21.036h-6.953v21.036z"></path>
</symbol>
<symbol id="icon-footer3" viewBox="0 0 16 32">
<path d="M13.757 15.422h-4.308v15.42h-6.425v-15.42h-3.023v-5.442h3.023v-3.553c0-2.494 1.209-6.425 6.425-6.425h4.762v5.291h-3.401c-0.529 0-1.361 0.302-1.361 1.512v3.175h4.838l-0.529 5.442z"></path>
</symbol>
<symbol id="icon-footer4" viewBox="0 0 38 32">
<path d="M37.008 4.503c-1.393 0.61-2.787 1.045-4.354 1.219 1.567-0.958 2.787-2.438 3.309-4.18-1.48 0.871-3.135 1.48-4.789 1.829-1.393-1.48-3.396-2.438-5.573-2.438-4.18 0-7.576 3.396-7.576 7.576 0 0.61 0.087 1.219 0.174 1.742-6.357-0.348-11.93-3.309-15.674-7.924-0.697 1.132-1.045 2.438-1.045 3.831 0 2.612 1.306 4.963 3.396 6.357-1.219 0-2.438-0.348-3.483-0.958v0.087c0 3.657 2.612 6.792 6.095 7.489-0.61 0.174-1.306 0.261-2.003 0.261-0.522 0-0.958-0.087-1.393-0.174 0.958 3.048 3.744 5.224 7.14 5.312-2.612 2.003-5.834 3.222-9.404 3.222-0.61 0-1.219 0-1.829-0.087 3.396 2.177 7.314 3.396 11.668 3.396 14.019 0 21.595-11.581 21.595-21.595 0-0.348 0-0.697 0-0.958 1.48-1.132 2.786-2.525 3.744-4.005z"></path>
</symbol>
</defs>
</svg>
