<svg width="116" height="116" viewBox="0 0 116 116" fill="none" xmlns="http://www.w3.org/2000/svg">
<rect y="0.000915527" width="116" height="116" rx="28" fill="#FE6292"/>
<g clip-path="url(#clip0_1_684)">
<path d="M67.4392 63.445C76.7527 71.8002 82.2404 79.8367 82.9069 91.5774H39.0918C39.7583 79.8368 45.246 71.8002 54.5595 63.445L58.4028 59.9973L54.5595 56.5575C45.246 48.2024 39.7583 40.1658 39.0918 28.4251H82.9069C82.2404 40.1658 76.7527 48.2025 67.4392 56.5575L63.5961 59.9973L67.4392 63.445Z" fill="#F6F9F9"/>
<path d="M38.67 30.8815H83.3278C84.8305 30.8815 86.0485 29.7886 86.0485 28.4407C86.0485 27.0927 84.8305 26 83.3278 26H38.67C37.1672 26 35.9492 27.0928 35.9492 28.4408C35.9492 29.7888 37.1672 30.8815 38.67 30.8815Z" fill="#2F4859"/>
<path d="M51.9579 77.4971C46.3589 80.3987 42.9102 85.7588 42.9102 91.5592H79.0879C79.0879 85.7586 75.6389 80.3987 70.04 77.4971L62.5385 73.6099C62.5385 64.1881 62.5385 61.8299 62.5385 52.408L67.8415 49.6601C71.4694 47.7801 73.9043 44.5363 74.5298 40.8869C74.6977 39.9074 73.8656 39.0177 72.7608 39.0177H49.2375C48.1326 39.0177 47.3004 39.9072 47.4684 40.8869C48.0939 44.5362 50.5291 47.7801 54.1568 49.6601L59.8276 52.5987C59.8276 61.8511 59.8276 64.1667 59.8275 73.4192L51.9579 77.4971Z" fill="#F7BE56"/>
<path d="M83.3278 89.1185H38.67C37.1672 89.1185 35.9492 90.2114 35.9492 91.5593C35.9492 92.9072 37.1672 94.0001 38.67 94.0001H83.3278C84.8305 94.0001 86.0485 92.9073 86.0485 91.5593C86.0485 90.2115 84.8305 89.1185 83.3278 89.1185Z" fill="#2F4859"/>
</g>
<defs>
<clipPath id="clip0_1_684">
<rect width="68" height="68" fill="white" transform="translate(27 26)"/>
</clipPath>
</defs>
</svg>
