<svg width="116" height="116" viewBox="0 0 116 116" fill="none" xmlns="http://www.w3.org/2000/svg">
<rect y="0.000854492" width="116" height="116" rx="28" fill="#5BC17F"/>
<g clip-path="url(#clip0_1_695)">
<path d="M47.0013 44.4739L44.8245 40.7037L42.645 40.5416L41.8418 42.4258L44.0202 46.1988C45.585 46.4859 46.7475 45.8792 47.0013 44.4739Z" fill="#B9C1CB"/>
<path d="M68.998 44.4739L71.1748 40.7037L73.3543 40.5416L74.1576 42.4258L71.9792 46.1988C70.4144 46.4859 69.2519 45.8792 68.998 44.4739Z" fill="#B9C1CB"/>
<path d="M59.7689 38.5942C62.5008 37.8115 64.4088 35.2774 64.4088 32.4321C64.4088 28.8979 61.5336 26.0228 57.9994 26.0228C54.4653 26.0228 51.59 28.898 51.59 32.4321C51.59 35.2774 53.498 37.8115 56.23 38.5942L56.5071 40.7311C52.473 40.0098 49.5684 36.4577 49.5684 32.4319C49.5682 27.7831 53.3505 24.0009 57.9994 24.0009C62.6484 24.0009 66.4306 27.7831 66.4306 32.4319C66.4306 36.4519 63.5345 39.9994 59.5096 40.7279L59.7689 38.5942Z" fill="#DAE4EA"/>
<path d="M57.9991 42.4876C58.6887 42.4876 59.3716 42.5198 60.047 42.5831V34.167H55.9512V42.5831C56.6267 42.5198 57.3096 42.4876 57.9991 42.4876Z" fill="#B9C1CB"/>
<path d="M57.9998 92.0006C71.8252 92.0006 83.0329 80.7929 83.0329 66.9675C83.0329 53.1422 71.8252 41.9345 57.9998 41.9345C44.1745 41.9345 32.9668 53.1422 32.9668 66.9675C32.9668 80.7929 44.1745 92.0006 57.9998 92.0006Z" fill="#DAE4EA"/>
<path d="M61.0328 30.131H54.965C54.6639 30.131 54.4199 30.375 54.4199 30.6761V34.1874C54.4199 34.4885 54.6639 34.7325 54.965 34.7325H61.0328C61.3339 34.7325 61.5778 34.4885 61.5778 34.1874V30.6761C61.5778 30.3752 61.3337 30.131 61.0328 30.131Z" fill="#DAE4EA"/>
<path d="M45.135 40.5245L41.5317 42.6049C41.3961 42.6831 41.2227 42.6367 41.1445 42.5011L38.452 37.8377C38.3738 37.7021 38.4201 37.5288 38.5557 37.4505L42.1591 35.3702C42.2947 35.2919 42.468 35.3383 42.5462 35.4739L45.2387 40.1373C45.3171 40.2728 45.2706 40.4461 45.135 40.5245Z" fill="#DAE4EA"/>
<path d="M70.8645 40.5245L74.4678 42.6049C74.6034 42.6831 74.7767 42.6367 74.8549 42.5011L77.5474 37.8377C77.6257 37.7021 77.5793 37.5288 77.4437 37.4505L73.8404 35.3702C73.7048 35.2919 73.5315 35.3383 73.4532 35.4739L70.7607 40.1373C70.6824 40.2728 70.7289 40.4461 70.8645 40.5245Z" fill="#DAE4EA"/>
<path d="M57.9995 87.4499C69.3114 87.4499 78.4815 78.2798 78.4815 66.968C78.4815 55.6561 69.3114 46.486 57.9995 46.486C46.6877 46.486 37.5176 55.6561 37.5176 66.968C37.5176 78.2798 46.6877 87.4499 57.9995 87.4499Z" fill="#F6F9F9"/>
<path d="M75.1125 66.9678C75.1125 57.5805 67.5144 49.9344 58.1451 49.8561C58.0654 49.8555 58.0001 49.9207 58.0001 50.0004V66.9678H41.0328C40.9531 66.9678 40.888 67.0332 40.8887 67.1129C40.9669 76.4821 48.6129 84.0802 58.0004 84.0802C58.0386 84.0802 58.0767 84.0801 58.1147 84.0798C67.4979 84.0181 75.1125 76.3655 75.1125 66.9678Z" fill="#FFC954"/>
<path d="M62.8159 50.5454C67.0039 53.6677 69.721 58.6585 69.721 64.2721C69.721 73.6697 62.1063 81.3223 52.723 81.3839C52.685 81.3842 52.6469 81.3843 52.6086 81.3843C50.9372 81.3843 49.3211 81.1434 47.793 80.6945C50.6445 82.8204 54.1779 84.08 58.0001 84.08C58.0384 84.08 58.0765 84.0799 58.1145 84.0796C67.4978 84.018 75.1125 76.3654 75.1125 66.9678C75.1124 59.2035 69.9146 52.6304 62.8159 50.5454Z" fill="#E1A729"/>
</g>
<defs>
<clipPath id="clip0_1_695">
<rect width="68" height="68" fill="white" transform="translate(24 24.0009)"/>
</clipPath>
</defs>
</svg>
