<svg width="116" height="116" viewBox="0 0 116 116" fill="none" xmlns="http://www.w3.org/2000/svg">
<rect y="0.000915527" width="116" height="116" rx="28" fill="#6B72FF"/>
<path d="M89.625 47.2505H87.5V40.8755C87.5 39.6982 86.548 38.7505 85.375 38.7505H34.375C30.8602 38.7505 28 41.6107 28 45.1255V83.3755C28 86.8902 30.8602 89.7505 34.375 89.7505H89.625C90.798 89.7505 91.75 88.7985 91.75 87.6255V49.3755C91.75 48.1982 90.798 47.2505 89.625 47.2505Z" fill="#FA855C"/>
<path d="M34.375 43.0005H83.25V47.2505H34.375C33.202 47.2505 32.25 46.2985 32.25 45.1255C32.25 43.9525 33.202 43.0005 34.375 43.0005Z" fill="#F8FEFE"/>
<path d="M93.875 72.7505H81.125C77.606 72.7505 74.75 69.8945 74.75 66.3755C74.75 62.8522 77.606 60.0005 81.125 60.0005H93.875C95.048 60.0005 96 60.9525 96 62.1255V70.6255C96 71.7985 95.048 72.7505 93.875 72.7505Z" fill="#FFD6C8"/>
<path d="M82.4378 47.2502L74.5243 31.4232C73.9973 30.3735 72.7223 29.9527 71.6725 30.4712L38.123 47.2502H82.4378Z" fill="#F8FEFE"/>
<path d="M32.25 47.2504H73.9383L66.0247 31.4234C65.4977 30.3736 64.2227 29.9529 63.173 30.4756L32.25 45.9371V47.2504Z" fill="#E6EAE8"/>
</svg>
